# xmcd
#
# Track frame offsets:
#	183
#	13015
#	29275
#	43318
#	59903
#	72048
#	85760
#	97733
#	113098
#	126638
#	138878
#	153980
#
# Disc length: 2206 seconds
#
# Revision: 1
# Processed by: cddbd v1.4PL0 Copyright (c) Steve Scherf et al.
# Submitted via: MusicWizard 6.0.2
#
DISCID=a0089c0c
DTITLE=Della Reese - The Classic Della
DYEAR=1900
DGENRE=Vocal
TTITLE0=The Story Of A Starry Night
TTITLE1=These Are The Things I Love
TTITLE2=If You Are But A Dream
TTITLE3=My Reverie
TTITLE4=Take My Heart
TTITLE5=Stranger In Paradise
TTITLE6=Gone
TTITLE7=Serenade
TTITLE8=Moon Love
TTITLE9=Softly My Love
TTITLE10=Till The End Of Time
TTITLE11=Don't You Know
EXTD=
EXTT0=
EXTT1=
EXTT2=
EXTT3=
EXTT4=
EXTT5=
EXTT6=
EXTT7=
EXTT8=
EXTT9=
EXTT10=
EXTT11=
PLAYORDER=
